<svg xmlns="http://www.w3.org/2000/svg" width="1400" height="816" viewBox="0 0 1400 816" role="img">
<title>Older Orbit installations use the documented 1.38.1 bridge before the target rollout, verifying arrival after each rollout.</title>
<defs><marker id="arrow" viewBox="0 0 10 10" refX="9" refY="5" markerWidth="8" markerHeight="8" orient="auto-start-reverse"><path d="M0 0 L10 5 L0 10 Z" fill="context-stroke"/></marker></defs>
<rect width="1400" height="816" fill="#F9FAFC"/>
<text x="48" y="80" text-anchor="start" font-family="Inter" font-size="40" font-weight="500" fill="#515774">The documented Orbit update route</text>
<rect x="48" y="188" width="384" height="140" rx="12" fill="#E8F1F6" stroke="#C5C7D1" stroke-width="2.5"/>
<text x="240.0" y="249.0" text-anchor="middle" font-family="Inter" font-size="30" font-weight="500" fill="#192147">Orbit below 1.38.1</text>
<text x="240.0" y="288.0" text-anchor="middle" font-family="Inter" font-size="30" font-weight="500" fill="#192147">tuf.fleetctl.com</text>
<rect x="508" y="188" width="384" height="140" rx="12" fill="#192147" stroke="#192147" stroke-width="2.5"/>
<text x="700.0" y="246.8" text-anchor="middle" font-family="Inter" font-size="38" font-weight="600" fill="#F9FAFC">Bridge release</text>
<text x="700.0" y="295.8" text-anchor="middle" font-family="Inter" font-size="38" font-weight="600" fill="#F9FAFC">1.38.1</text>
<rect x="968" y="188" width="384" height="140" rx="12" fill="#E8F1F6" stroke="#C5C7D1" stroke-width="2.5"/>
<text x="1160.0" y="249.0" text-anchor="middle" font-family="Inter" font-size="30" font-weight="500" fill="#192147">Target release</text>
<text x="1160.0" y="288.0" text-anchor="middle" font-family="Inter" font-size="30" font-weight="500" fill="#192147">updates.fleetdm.com</text>
<path d="M432 258 L508 258" fill="none" stroke="#192147" stroke-width="4" stroke-linejoin="round" stroke-linecap="round" marker-end="url(#arrow)"/>
<text x="470" y="162" text-anchor="middle" font-family="Inter" font-size="36" font-weight="600" fill="#192147">1</text>
<path d="M892 465 L930 465 L930 258 L968 258" fill="none" stroke="#192147" stroke-width="4" stroke-linejoin="round" stroke-linecap="round" marker-end="url(#arrow)"/>
<text x="966" y="390" text-anchor="middle" font-family="Inter" font-size="36" font-weight="600" fill="#192147">2</text>
<path d="M700 328 L700 416" fill="none" stroke="#192147" stroke-width="4" stroke-linejoin="round" stroke-linecap="round" marker-end="url(#arrow)"/>
<path d="M1160 328 L1160 416" fill="none" stroke="#192147" stroke-width="4" stroke-linejoin="round" stroke-linecap="round" marker-end="url(#arrow)"/>
<rect x="508" y="416" width="384" height="98" rx="12" fill="#D8FBEF" stroke="#C5C7D1" stroke-width="2.5"/>
<text x="700.0" y="476.9" text-anchor="middle" font-family="Inter" font-size="34" font-weight="500" fill="#192147">Verify arrival</text>
<rect x="968" y="416" width="384" height="98" rx="12" fill="#D8FBEF" stroke="#C5C7D1" stroke-width="2.5"/>
<text x="1160.0" y="476.9" text-anchor="middle" font-family="Inter" font-size="34" font-weight="500" fill="#192147">Verify arrival</text>
<path d="M240 328 L240 624 L1376 624 L1376 258 L1352 258" fill="none" stroke="#8B8FA2" stroke-width="4" stroke-linejoin="round" stroke-linecap="round" stroke-dasharray="7 7" marker-end="url(#arrow)"/>
<path d="M691 609 L721 639" fill="none" stroke="#D66C7B" stroke-width="6" stroke-linejoin="round" stroke-linecap="round"/>
<path d="M691 639 L721 609" fill="none" stroke="#D66C7B" stroke-width="6" stroke-linejoin="round" stroke-linecap="round"/>
<text x="700" y="690" text-anchor="middle" font-family="Inter" font-size="32" font-weight="400" fill="#515774">Cannot upgrade directly</text>
<text x="700" y="756" text-anchor="middle" font-family="Inter" font-size="28" font-weight="400" fill="#515774">Migration code also existed in 1.38.0; use documented bridge 1.38.1</text>
</svg>
